<?xml version="1.0" encoding="utf-8"?>
<!-- Generator: Adobe Illustrator 24.0.0, SVG Export Plug-In . SVG Version: 6.00 Build 0)  -->
<svg version="1.1" id="Layer_1" xmlns="http://www.w3.org/2000/svg" xmlns:xlink="http://www.w3.org/1999/xlink" x="0px" y="0px"
	 viewBox="0 0 300 300" style="enable-background:new 0 0 300 300;" xml:space="preserve">
<style type="text/css">
	.st0{fill:none;stroke:#000000;stroke-width:18;stroke-miterlimit:10;}
	.st1{fill:#4CBB5C;}
</style>
<g>
	<path d="M180.54,253.42h-65.52c-3.84,0-6.99-3.04-7.14-6.87c0-0.1-0.38-9.72-1.79-20.08c-2.28-16.69-5.29-21.04-5.92-21.79
		c-36.22-18.45-58.69-54.73-58.69-94.88C41.48,50.91,90.16,3,150,3s108.52,47.91,108.52,106.79c0,42.07-24.84,79.88-63.56,97.22
		c-5.43,17.4-7.29,39.61-7.31,39.85C187.36,250.56,184.26,253.42,180.54,253.42z M121.75,239.13h52.35
		c1.08-9.12,3.56-26.02,8.35-39.77c0.67-1.93,2.14-3.47,4.02-4.25c35.09-14.47,57.77-47.96,57.77-85.32
		c0-51.01-42.27-92.5-94.24-92.5c-51.96,0-94.24,41.5-94.24,92.5c0,34.97,19.73,66.56,51.49,82.46c0.33,0.16,0.64,0.35,0.93,0.56
		c3.96,2.7,8.83,8.79,11.95,30.97C120.94,229.53,121.44,235.03,121.75,239.13z"/>
	<path d="M176.33,253.93h-55.56c-10.1,0-18.32-8.22-18.32-18.32s8.22-18.32,18.32-18.32h55.56c10.1,0,18.32,8.22,18.32,18.32
		S186.43,253.93,176.33,253.93z M120.77,231.57c-2.23,0-4.04,1.81-4.04,4.04s1.81,4.04,4.04,4.04h55.56c2.23,0,4.04-1.81,4.04-4.04
		s-1.81-4.04-4.04-4.04H120.77z"/>
	<path d="M172.56,276.29h-48.02c-10.1,0-18.32-8.22-18.32-18.32c0-10.1,8.22-18.32,18.32-18.32h48.02c10.1,0,18.32,8.22,18.32,18.32
		C190.89,268.07,182.67,276.29,172.56,276.29z M124.54,253.93c-2.23,0-4.04,1.81-4.04,4.04c0,2.23,1.81,4.04,4.04,4.04h48.02
		c2.23,0,4.04-1.81,4.04-4.04c0-2.23-1.81-4.04-4.04-4.04H124.54z"/>
	<path d="M147.66,297c-13.91,0-25.23-9.54-25.23-21.26h14.29c0,3.3,4.5,6.97,10.95,6.97c6.45,0,10.95-3.67,10.95-6.97h14.29
		C172.89,287.46,161.57,297,147.66,297z"/>
	<path class="st0" d="M113.36,199.44"/>
	<path class="st1" d="M134.75,148.16c-2.32,0-4.65-0.81-6.53-2.45l-27.45-24.01c-4.12-3.61-4.54-9.87-0.94-14
		c3.61-4.13,9.87-4.54,14-0.94l20.48,17.91L185.7,73.4c3.88-3.87,10.16-3.86,14.03,0.02c3.87,3.88,3.86,10.16-0.02,14.03
		l-57.95,57.81C139.83,147.18,137.29,148.16,134.75,148.16z"/>
</g>
</svg>
