<svg id="Layer_1" data-name="Layer 1" xmlns="http://www.w3.org/2000/svg" viewBox="0 0 296 297"><defs><style>.cls-1{fill:#4cbb5c;}</style></defs><title>index_icon2</title><path d="M68,206.63c-16.67,0-32.44-2.6-44.42-7.31C9.67,193.83,2,185.79,2,176.67S9.67,159.51,23.61,154c12-4.72,27.75-7.31,44.42-7.31s32.45,2.59,44.43,7.31c13.93,5.48,21.61,13.52,21.61,22.64s-7.68,17.16-21.61,22.65C100.48,204,84.7,206.63,68,206.63ZM68,160c-15,0-28.93,2.26-39.33,6.35-9,3.55-13.08,7.74-13.08,10.31S19.67,183.43,28.7,187c10.4,4.09,24.37,6.34,39.33,6.34S97,191.08,107.36,187c9-3.56,13.08-7.75,13.08-10.32s-4-6.76-13.08-10.31C97,162.27,83,160,68,160Z" transform="translate(-2 -2)"/><path d="M68,237.5c-16.67,0-32.44-2.6-44.42-7.31C9.67,224.7,2,216.66,2,207.54H15.62c0,2.57,4.05,6.76,13.08,10.32C39.1,222,53.07,224.2,68,224.2S97,222,107.36,217.86c9-3.56,13.08-7.75,13.08-10.32h13.63c0,9.12-7.68,17.16-21.61,22.65C100.48,234.9,84.7,237.5,68,237.5Z" transform="translate(-2 -2)"/><path d="M68,268.37c-16.67,0-32.44-2.6-44.42-7.31C9.67,255.57,2,247.53,2,238.41H15.62c0,2.57,4.05,6.76,13.08,10.32,10.4,4.09,24.37,6.34,39.33,6.34s28.94-2.25,39.33-6.34c9-3.56,13.08-7.75,13.08-10.32h13.63c0,9.12-7.68,17.16-21.61,22.65C100.48,265.77,84.7,268.37,68,268.37Z" transform="translate(-2 -2)"/><path d="M68,299c-16.67,0-32.44-2.6-44.42-7.31C9.67,286.21,2,278.16,2,269H15.62c0,2.58,4.05,6.76,13.08,10.32,10.4,4.09,24.37,6.34,39.33,6.34s28.94-2.25,39.33-6.34c9-3.56,13.08-7.74,13.08-10.32h13.63c0,9.12-7.68,17.17-21.61,22.65C100.48,296.4,84.7,299,68,299Z" transform="translate(-2 -2)"/><rect y="174.67" width="13.62" height="92.37"/><rect x="118.44" y="174.67" width="13.62" height="92.37"/><path d="M257.41,264.87H151a6.65,6.65,0,1,1,0-13.29h106.4a27,27,0,0,0,27-26.93v-87c0-44.93-36.72-81.49-81.86-81.49s-81.86,36.56-81.86,81.49a6.81,6.81,0,0,1-13.62,0c0-52.27,42.83-94.79,95.48-94.79S298,85.35,298,137.62v87A40.45,40.45,0,0,1,257.41,264.87Z" transform="translate(-2 -2)"/><path d="M180.06,59a6.85,6.85,0,0,1-5.9-3.32L148.32,12a6.5,6.5,0,0,1,0-6.65A6.84,6.84,0,0,1,154.22,2h96.6a6.84,6.84,0,0,1,5.9,3.32,6.5,6.5,0,0,1,0,6.65L230.88,55.66a6.89,6.89,0,0,1-7.65,3.1,83.24,83.24,0,0,0-41.42,0A7,7,0,0,1,180.06,59ZM166,15.3l17.41,29.43a97.46,97.46,0,0,1,38.2,0L239,15.3Z" transform="translate(-2 -2)"/><path class="cls-1" d="M191.94,176.44c1.3,5.71,5.81,9.32,12.59,9.32,8.39,0,11.07-3.93,11.07-8.36,0-5.43-2.95-8.09-13.47-11C183,161,177.39,154.1,177.39,143.7c0-13.4,12-20.78,25.67-20.78,19.5,0,26,9.77,26.94,19.7H213.91c-.82-3.08-2.29-8.05-11-8.05-7.29,0-9.36,4.18-9.36,7.6,0,4.84,2.69,7,14.82,10.34,16.94,4.61,23.31,11.29,23.31,23.08,0,14.71-11.53,21.8-27.73,21.78-17.2,0-27.11-8.54-28.13-20.93Zm4.63-48.79V116.31h13.48v11.34Zm.8,78.14v-16H211v16Z" transform="translate(-2 -2)"/></svg>