<svg id="Layer_1" data-name="Layer 1" xmlns="http://www.w3.org/2000/svg" viewBox="0 0 298 298"><defs><style>.cls-1{fill:#4cbb5c;}.cls-2{fill:none;stroke:#4cbb5c;stroke-miterlimit:10;stroke-width:18px;}</style></defs><title>index_icon3</title><path class="cls-1" d="M150,299C67.84,299,1,232.16,1,150A147.43,147.43,0,0,1,33.13,57.58l3.75-4.74L42,56c26.13,16,65.48,25.18,108,25.18S231.84,72,258,56l5.15-3.16,3.75,4.74A147.43,147.43,0,0,1,299,150C299,232.16,232.16,299,150,299ZM40.26,70.72A133.85,133.85,0,0,0,14.63,150c0,74.64,60.73,135.37,135.37,135.37S285.37,224.64,285.37,150a133.85,133.85,0,0,0-25.63-79.28c-28,15.36-67.57,24.09-109.74,24.09S68.29,86.08,40.26,70.72Z" transform="translate(-1 -1)"/><path class="cls-1" d="M150,94.81c-44.93,0-86.88-9.91-115.09-27.19l-6.56-4,4.78-6a149,149,0,0,1,233.74,0l4.78,6-6.56,4C236.88,84.9,194.93,94.81,150,94.81ZM49,59.92c25.89,13.57,62.15,21.26,101,21.26s75.14-7.69,101-21.26A135.35,135.35,0,0,0,49,59.92Z" transform="translate(-1 -1)"/><path class="cls-1" d="M150,299A148.27,148.27,0,0,1,33.13,242.42l-4.78-6,6.56-4C63.12,215.1,105.07,205.19,150,205.19s86.88,9.91,115.09,27.19l6.56,4-4.78,6A148.27,148.27,0,0,1,150,299ZM49,240.08a135.35,135.35,0,0,0,202.08,0c-25.9-13.57-62.16-21.26-101-21.26S74.86,226.51,49,240.08Z" transform="translate(-1 -1)"/><path class="cls-2" d="M150,150" transform="translate(-1 -1)"/><path class="cls-2" d="M150,150" transform="translate(-1 -1)"/><rect class="cls-1" x="142.18" y="6.82" width="13.63" height="284.37"/><rect class="cls-1" x="6.82" y="142.18" width="284.37" height="13.63"/><path class="cls-1" d="M150,299c-21.17,0-40.66-16.15-54.89-45.49C81.65,225.75,74.23,189,74.23,150S81.65,74.25,95.11,46.49C109.34,17.15,128.83,1,150,1s40.66,16.15,54.89,45.49C218.35,74.25,225.77,111,225.77,150s-7.42,75.75-20.88,103.51C190.66,282.85,171.17,299,150,299Zm0-284.37c-33.68,0-62.14,62-62.14,135.37S116.32,285.37,150,285.37s62.14-62,62.14-135.37S183.68,14.63,150,14.63Z" transform="translate(-1 -1)"/></svg>