<svg id="Layer_1" data-name="Layer 1" xmlns="http://www.w3.org/2000/svg" viewBox="0 0 294.25 290"><defs><style>.cls-1{fill:#4cbb5c;}.cls-2{fill:#fff;}</style></defs><title>index_icon4</title><path class="cls-1" d="M246.5,28.54c-23.36-25.95-66.4-26.8-96.62,4-30.21-30.78-73.25-29.93-96.61-4C30.7,53.6,36.93,95.49,38.6,105.86c13.22,82,103.06,116.39,111.28,119.4,8.23-3,98.07-37.42,111.29-119.4C262.84,95.49,269.06,53.6,246.5,28.54Z" transform="translate(-2.88 -5)"/><path d="M149.88,229.5a3.47,3.47,0,0,1-1.14-.2c-10.23-3.74-100.32-39-113.82-122.68-3.25-20.16-5.52-57.5,15.73-81.11A63,63,0,0,1,99.08,5c18.32.41,36.24,8.16,50.8,21.89C164.45,13.18,182.36,5.43,200.69,5a63,63,0,0,1,48.43,20.49c21.25,23.61,19,60.95,15.72,81.11C251.34,190.36,161.26,225.56,151,229.3A3.48,3.48,0,0,1,149.88,229.5Zm-52.62-216A54.84,54.84,0,0,0,55.88,31.57c-18.79,20.86-16.59,55-13.6,73.52,12.31,76.41,93.61,110.4,107.6,115.71,14-5.31,95.29-39.3,107.61-115.71,3-18.5,5.18-52.66-13.6-73.52-23.08-25.64-64.13-23.79-91.51,4.1a3.41,3.41,0,0,1-5,0C132.94,21,114.68,13.48,97.26,13.48Z" transform="translate(-2.88 -5)"/><path class="cls-2" d="M40.33,145.53l-7.16-78.1c0-8-5.69-14.54-12.72-14.54h0c-7,0-12.72,6.51-12.72,14.54V182.75a16.21,16.21,0,0,0,.94,5.46h0v0a14.86,14.86,0,0,0,3.17,5.19l35.72,58.65v37.42H103.7l-5.84-41.43V201.61a16.18,16.18,0,0,0-2-10.5L63.54,135.8c-3.9-6.67-11.8-8.46-17.64-4S38.49,145.29,42.39,152l24.7,42.19" transform="translate(-2.88 -5)"/><path d="M103.7,295H47.56c-2.68,0-4.85-2.47-4.85-5.51v-35.7L8.12,197a20.61,20.61,0,0,1-3.92-6.64c0-.07,0-.14-.07-.2a22.45,22.45,0,0,1-1.25-7.42V67.43c0-11.06,7.88-20.05,17.57-20.05S37.88,56.21,38,67.12L43.52,127a15.69,15.69,0,0,1,12.86-2.76,17.5,17.5,0,0,1,11.21,8.54L100,188.06a22.17,22.17,0,0,1,2.76,14v45.59l5.79,41a6,6,0,0,1-1.1,4.44A4.63,4.63,0,0,1,103.7,295ZM52.42,284H98l-5-35a6.4,6.4,0,0,1-.06-.88V201.61a5.58,5.58,0,0,1,.07-.91,10.08,10.08,0,0,0-1.21-6.54L59.5,138.85a7.82,7.82,0,0,0-5-3.82,7,7,0,0,0-5.87,1.34,9.56,9.56,0,0,0-3.48,8.25l0,.34V145a9.86,9.86,0,0,0,1.27,3.88l24.69,42.2a6,6,0,0,1-1.36,7.64A4.52,4.52,0,0,1,63,197.2L38.35,155a21.83,21.83,0,0,1-2.82-8.65l0-.26L28.34,68a5.44,5.44,0,0,1,0-.57c0-5-3.52-9-7.86-9s-7.86,4.05-7.86,9V182.75a10.29,10.29,0,0,0,.58,3.4l0,.07a8.92,8.92,0,0,0,2,3.17,5.64,5.64,0,0,1,.69.9l35.72,58.65a6,6,0,0,1,.86,3.13Z" transform="translate(-2.88 -5)"/><path class="cls-2" d="M259.67,145.53l7.16-78.1c0-8,5.69-14.54,12.72-14.54h0c7,0,12.72,6.51,12.72,14.54V182.75a16.21,16.21,0,0,1-.94,5.46h0l0,0a14.69,14.69,0,0,1-3.16,5.19l-35.72,58.65v37.42H196.29l5.85-41.43V201.61a16.18,16.18,0,0,1,2-10.5l32.36-55.31c3.9-6.67,11.8-8.46,17.64-4s7.41,13.49,3.5,20.16l-24.69,42.19" transform="translate(-2.88 -5)"/><path d="M252.44,295H196.29a4.63,4.63,0,0,1-3.69-1.94,6,6,0,0,1-1.1-4.44l5.79-41V202a22.17,22.17,0,0,1,2.76-14l32.36-55.3a17.5,17.5,0,0,1,11.21-8.54A15.69,15.69,0,0,1,256.48,127L262,67.12c.15-10.91,8-19.74,17.58-19.74s17.57,9,17.57,20.05V182.75a22.35,22.35,0,0,1-1.2,7.27,5.17,5.17,0,0,1-.18.51,20.47,20.47,0,0,1-3.86,6.48l-34.59,56.78v35.7C257.29,292.53,255.12,295,252.44,295ZM202,284h45.59V252.07a6,6,0,0,1,.86-3.13l35.72-58.65a5.64,5.64,0,0,1,.69-.9,9.17,9.17,0,0,0,2-3.22v0a10.29,10.29,0,0,0,.58-3.4V67.43c0-5-3.53-9-7.86-9s-7.87,4.05-7.87,9a5.43,5.43,0,0,1,0,.57l-7.16,78.1,0,.25a21.76,21.76,0,0,1-2.82,8.66L237,197.2a4.52,4.52,0,0,1-6.73,1.55,6,6,0,0,1-1.36-7.64l24.69-42.2a9.82,9.82,0,0,0,1.27-3.87.22.22,0,0,1,0-.08l0-.36a9.55,9.55,0,0,0-3.48-8.23,7,7,0,0,0-5.87-1.34,7.82,7.82,0,0,0-5,3.82l-32.36,55.31a10.07,10.07,0,0,0-1.21,6.54,5.58,5.58,0,0,1,.07.91v46.45a6.4,6.4,0,0,1-.06.88Z" transform="translate(-2.88 -5)"/></svg>