<svg xmlns="http://www.w3.org/2000/svg" width="278.545" height="44" viewBox="0 0 278.545 44">
  <g id="Greenpeace_Logo_Black_SVG" transform="translate(0 0.021)">
    <path id="패스_15" data-name="패스 15" d="M454.782,20.071c-.789.674-2.12.836-9.03,2.039a5.847,5.847,0,0,0-1.365.568,13.615,13.615,0,0,0-5,1.63c-.324.181-.72,1.09-.847,2.77.46.553.7.514,1.293.514,3.309,0,8.035-1.66,8.608-1.559,2.15.478,3.147,3.795,3.147,5.5a11.162,11.162,0,0,1-.254,1.362c-.268.72-1.563,1.321-3.126,1.463-7.441.677-10.919,1.256-11.781,1.862a2.74,2.74,0,0,0-.425,1.4c0,1.754,3.726,2.206,4.358,2.206,2.308,0,3.465-1.229,4.307-1.229,1.011,0,3.086,2.446,3.086,5.2,0,1.805-1.055,4.758-5.66,4.758a21.92,21.92,0,0,1-9.9-3.447s.109-.739-1.414-1.822a16.837,16.837,0,0,1-1.46-6.383c0-5.293,2.618-8.809,2.974-10.859,0,0-1.247-1.754-1.734-2.4A2.583,2.583,0,0,1,430,21.655c0-4.127,2.706-4.9,2.838-4.9l.94.017a11.425,11.425,0,0,0,2.271-1.3l1.48-.1c.875-.11,10.783-2.67,12.759-2.67,1.578,0,2.192.259,2.816,1.222.416.643,2.1,3.72,2.1,4.821A2.984,2.984,0,0,1,454.782,20.071Z" transform="translate(-367.033 -10.877)"/>
    <path id="패스_16" data-name="패스 16" d="M599.521,37.146a3.613,3.613,0,0,0-.529,1.548c-.073.63,2.237,1.637,4.331,1.745,6.127.313,5.34-2.514,7.133-1.624,1.172.582,2.207,3.541,2.207,5.267,0,3.965-3.857,5.083-7.281,5.083a21.72,21.72,0,0,1-8.9-2.192s-3.61-4.5-3.61-7.736c0-7.426,3.946-15.6,4.142-15.988,0,0,.323-2.136.516-3.519.216-1.563,1.268-1.882,2.151-2.86,2.006-.2,5.571-1.784,16.756-3,1.412-.153,3.172,1.8,4.12,4.77.168.525-.107,2.6-.813,2.816-.42.13-1.542.259-10.588,1.2a10.15,10.15,0,0,0-3.825.887,10.537,10.537,0,0,0-2.3,3.587c-.2.792.2,1.215,1.216,1.108a26.981,26.981,0,0,0,8.351-2.591c1.7,0,3.318,2.266,3.8,4.748a3.2,3.2,0,0,1-.57,2.954,18.222,18.222,0,0,1-5.981,1.929,7.656,7.656,0,0,1-2.171.13c-.2-.018-.7.328-.989.369C603.235,36.266,600.129,36.554,599.521,37.146Z" transform="translate(-506.865 -11.87)"/>
    <path id="패스_17" data-name="패스 17" d="M1163.62,5.869c0,1.856-.537,3.073-1.2,3.327-2.913,1.116-12.7,2.508-17.212,4.012-.821.274-2.289,2.733-2.289,3.69,0,.493.566.658,1.411.546,6.52-.86,7.653-1.421,10.374-2.641a2.22,2.22,0,0,1,1.488.491,7.183,7.183,0,0,1,1.58,4.885c0,1.465-.644,3.011-3.2,3.4-3.377.511-11.142,1.658-13.418,1.932a3.715,3.715,0,0,0-1.906.581c-1.024,1.474-.618,4.567,6.348,3.04,2.924-.641,3.5-1.714,5.16-1.714a1.882,1.882,0,0,1,.429.056c1.423,1.2,1.734,2.638,1.734,4.6a5.1,5.1,0,0,1-3.06,4.94,7.534,7.534,0,0,1-1.013.251,15.579,15.579,0,0,1-1.471.667,10.473,10.473,0,0,1-2.591.392c-4.78,0-12.387-2.2-12.387-11.03,0-8.009,5.439-13.606,6.883-18.9a6.168,6.168,0,0,0,.724-.916c.1-.912.927-3.046,1.956-3.157A116.577,116.577,0,0,0,1159.324.085a1.656,1.656,0,0,1,1.542.189A7.627,7.627,0,0,1,1163.62,5.869Z" transform="translate(-968.116 0)"/>
    <path id="패스_18" data-name="패스 18" d="M276.432,32.329c-1.417-1.593-5.991-4.11-7.56-5.714.676-.768,4.346-5.938,4.346-10.023,0-5.77-4.185-12.684-9.816-12.684,0,0-1.64.029-3.631.184-.361.561-1.562.432-1.562.432-1.977.889-3.811,2.376-3.811,7.149,0,.856,1.2,1.742,1.918,2.407a25.116,25.116,0,0,1-1.37,5.965c-.254.649-2.079.9-2.079.9l-.961,1.243c-.624,3.7.012,4.145,1.291,5.81.171,1.956-.593,5.344-.593,7.269,0,1.388.529,1.237.251,2.664a1.722,1.722,0,0,1,.327.567,4.293,4.293,0,0,0,3.769,2.765,2.192,2.192,0,0,0,2.346-1.829c0-1.643-.423-6.67-.384-7.128a5.055,5.055,0,0,1,.8-2.457c1.081,0,5.894,4.367,10,8.557a4.619,4.619,0,0,0,2.948,1.28c2.5,0,3.528-2.821,4.244-3.471A4.308,4.308,0,0,0,276.432,32.329ZM262.082,21.21A1.6,1.6,0,0,1,261.039,21s1.267-7.421,1.377-9.019a3.141,3.141,0,0,1,4.151,2.847C266.566,16.87,265.625,19.311,262.082,21.21Z" transform="translate(-215.154 -3.358)"/>
    <path id="패스_19" data-name="패스 19" d="M826.136,7.482l-1.8-.522-.927-.47a52.482,52.482,0,0,0-10.147-.366,14.04,14.04,0,0,1-2.148-.4,14.4,14.4,0,0,1-2.727,1.228,5.853,5.853,0,0,1-1.252-.376,20.986,20.986,0,0,0-6.623,1.935,4.379,4.379,0,0,0-1.5,1.763.614.614,0,0,0-.029.063c-.057.135-.278.36-.313,0h0a7.252,7.252,0,0,0-.162-.987,4.621,4.621,0,0,0-3.828-2.993c-.517,0-1.6.579-1.7,1.2-.124.78-.209,4.281-.581,7.681-.038.342-.041,6.746-.682,8.876-.147.032-.6.2-.742-.017-1.607-2.422-5.816-6.612-6.172-9.388-.33-2.562.091-6.6-1.231-7.637a10.524,10.524,0,0,0-3.657-1.1,2.791,2.791,0,0,0-2.29,1.073l-.1.776-.73,1.1a19.852,19.852,0,0,0-.42,4.6l.614,3.154a2.36,2.36,0,0,1-.561,1.358l.157,2.432c0,2.738-2.5,12.146-2.5,14.98,0,6.372,5.566,5.849,5.888,5.578a5.822,5.822,0,0,0,1.232-2.088c.376-3.764.762-10.186,1.778-12.073.207-.384.736-.571,1.008-.314a15.676,15.676,0,0,1,2,2.909c.99,1.406,3.876,4.907,4.419,8.055.045.263,0,.9.082,1.392a5.594,5.594,0,0,0,2.092,3.525,5.334,5.334,0,0,0,3.034.345c1.058-.181,2.984-.389,2.984-5.361a37.138,37.138,0,0,0-.488-5.142,144.273,144.273,0,0,0,.753-14.72,10.927,10.927,0,0,1-.523-1.187,12.065,12.065,0,0,0,.345-1.639h0c.029-.2.135-.352.215-.184h0c.059.118.13.249.209.375a2.95,2.95,0,0,0,2.461,1.217c1.766,0,4.079-2.067,5.68-1.693.219.051.457-.339,1.713-.446a38.526,38.526,0,0,1-.165,4.726c-.1,1.064-.581,1.3-2.556,1.3a1.6,1.6,0,0,0-1.389,1.036,20.156,20.156,0,0,0-.768,4.123c0,1.557,1.738,3.562,3.85,4.126.132.652-.5,5.678-.5,8.206s.6,3.674.712,3.776a6.805,6.805,0,0,0,3.306,1.453,3.252,3.252,0,0,0,2.4-1.007,5.048,5.048,0,0,0,.444-2.16c.132-5.778.781-11.872,1.506-12.085a31.978,31.978,0,0,0,10.272-4.823c1.772-1.288,4-3.968,4-6.65C830.071,12.5,827.8,8.543,826.136,7.482Zm-10.2,11.565c-.435,0-.711-.139-.825-.5a23.522,23.522,0,0,1-.6-5.444c1.513-.314,8.157.1,8.157,1.808C822.671,16.46,818.2,19.055,815.934,19.047Z" transform="translate(-661.779 -4.908)"/>
    <path id="패스_20" data-name="패스 20" d="M35.756,24.909a13.785,13.785,0,0,0-1.734-5.3,4.066,4.066,0,0,0-3.359-1.288c-.884,0-15.724,2.287-17.585,3.439-.89.552-1.225,1.813-1.225,3.645,0,2.567,1.693,3.71,2.175,3.71,1.084,0,8.619-1.462,11.326-1.967.556-.1.773.128.766.352a3.029,3.029,0,0,1-.481,1.758,9.237,9.237,0,0,1-4,2.339C19.5,31.185,17.7,33,15.559,31.944c-.925-.012-2.259.658-2.9-.376-2.153-.482-4.454-.629-6.177-2.058a2.8,2.8,0,0,1-.821-2.228c0-2.331,3.479-8.318,9.4-13.884,1.228-1.155,5.637-4.387,7.578-4.387,1.3,0,1.752,2.9,2.783,3.993a2.33,2.33,0,0,0,1.862.07c1.137-.494,2.029-1.108,2.029-2.443a10.94,10.94,0,0,0-2.15-6.622A9.668,9.668,0,0,0,22.474,2c-2.485,0-3.654,1.477-4.567,1.512a31.217,31.217,0,0,0-6.183,5.016,1.788,1.788,0,0,1-.661.361,5.164,5.164,0,0,1-.6,1.347c-.136.083-1.43.939-1.43.939C7.335,12.82,0,21.989,0,25.417c0,3.217,2.138,7.707,2.925,8.442,2.685,2.508,7.668,4.271,13.285,4.271a20.339,20.339,0,0,0,8.7-2.157h0c.268-.154.451-.133.42.159-.036.331-.083.788-.1,1.152-.024.384-.207,2.31-.207,3.613,0,2.281.62,3.453,1.247,4.056a8.59,8.59,0,0,0,3.463.756,3.1,3.1,0,0,0,2.59-2.974c0-1.187-.133-2.78-.112-3.166C32.754,29.389,35.756,26.591,35.756,24.909Z" transform="translate(0 -1.728)"/>
    <path id="패스_21" data-name="패스 21" d="M1385.815,11.024c-.55-2.463-2.451-4.72-4.055-5.081-1.447.327-13.334,2.6-21.145,3.627-1.076.141-2.405.192-2.405.192l-.89.454a5.787,5.787,0,0,0-2.3.677,6.872,6.872,0,0,0-2.736,4.425l.153,2.044c-2.414,4.8-4.041,8.649-4.041,13.873,0,.1,0,.218.012.334,0,.385-.039.576-.145.479a5.22,5.22,0,0,0-.442-.6c-.931-1.064-1.241-1.206-1.671-1.206-1.283,0-2.251,2.408-6.567,2.408-3.884,0-11.172-4.07-11.172-6.192,0-4.671,6.219-10.507,10.848-10.507.811,0,1.021.231,1.021.785,0,.922-.692,2.367-.692,3.284,0,2.23,3.356,3.832,5.119,3.832.508,0,4.129-1.332,4.129-6.59,0-3.09-2.254-8.185-5.957-8.185-4.658,0-11.636,2.469-16.309,5.728a3.291,3.291,0,0,1-.655.958,18.257,18.257,0,0,1-1.534,1.144,20.993,20.993,0,0,0-2.306,4.018c-.089.2-.192.466-.293.738,0,0,0,0,0,0-.2.535-.529.715-.6.4-.027-.269-.059-.612-.094-1.052a35.012,35.012,0,0,0-.625-4.661s-.521-1.41-.658-2.054c-.039-.184-.062-.96-.062-.96a14.3,14.3,0,0,0-4-7.033c-1.69-.617-2.112-.776-2.848-.307-2.889,1.841-6.277,7.452-11.489,17.077a9.5,9.5,0,0,1-2.015,1.648,7.183,7.183,0,0,1-.089,2.676c-1.037,3.314-4.039,7.467-3.9,8.321l.165,1.01-.115,1.2c0,.769,2.376,3.548,4.361,3.548a2.008,2.008,0,0,0,.459-.047c2-1.77,2.57-5.214,4.349-8.106.2-.32.261-.376.741-.556a25.606,25.606,0,0,1,4.481-.943,5.944,5.944,0,0,1,1.9.1l.886-.292c.832-.047,1.279.2,1.279.871a47.487,47.487,0,0,0,.289,6.916c.349,1.568,1.8,2.638,4.677,2.859a2.976,2.976,0,0,0,1.852-1.755c.572-1.663.219-3.767.219-5.575,0-2.7.085-4.315.157-5.194.065-.3.278-.385.37-.109,0,0,0,0,0,0a9.549,9.549,0,0,0,1.417,2.609c3.586,4.278,9.653,9.279,18.123,9.81,3.376.212,5.863-1.506,7.166-4.823.283-.721.482-1.355.587-1.711.068-.1.195-.063.293.115l0,0a9.741,9.741,0,0,0,.9,1.326c2.913,3.665,7.049,4.806,12.263,4.018,5.81-.877,6.6-1.472,7.09-2.109a7.787,7.787,0,0,0,1.229-3.891,3.31,3.31,0,0,0-.591-2.835c-.9-.9-3.687.012-7.363.636-4.869.827-6.919-1.229-6.86-1.859.035-.379.224-1.149.719-1.274a5.366,5.366,0,0,1,1.935.187,36.909,36.909,0,0,1,4.928-.522c.747,0,1.627.11,1.923.122,0,0,3.2-.236,5.1-.614a3.148,3.148,0,0,0,2.317-1.9,6.29,6.29,0,0,0-.277-3.717c-1.342-2.765-2.931-3.076-3.273-3a32.622,32.622,0,0,1-9.639,1.12,1.032,1.032,0,0,1-.846-1.113,4.691,4.691,0,0,1,2.972-3.376c3.654-.7,14.481-1.779,18.457-1.979,2.49-.125,5.11.635,5.606-.21C1386.232,13.677,1385.955,11.651,1385.815,11.024Zm-71.587,11.258c-.293.576-2.03,1.008-4.954,1.048-.13,0-.274-.259-.2-.423,1.208-2.88,3.548-7.947,3.864-7.985a1.293,1.293,0,0,1,1.029.395C1314.565,16.09,1314.6,21.552,1314.228,22.282Z" transform="translate(-1107.459 -4.917)"/>
  </g>
</svg>
