<svg id="Layer_1" data-name="Layer 1" xmlns="http://www.w3.org/2000/svg" viewBox="0 0 148 148"><defs><style>.cls-1,.cls-2{fill:#fff;}.cls-2{stroke:#4cbb5c;stroke-miterlimit:10;stroke-width:18px;}</style></defs><title>support_btn</title><path class="cls-1" d="M75,149A74.09,74.09,0,0,1,1,75,73.21,73.21,0,0,1,17,29.1l1.86-2.35,2.56,1.56c13,8,32.52,12.51,53.62,12.51s40.65-4.56,53.62-12.51l2.56-1.56L133,29.1A73.21,73.21,0,0,1,149,75,74.09,74.09,0,0,1,75,149ZM20.5,35.63A66.43,66.43,0,0,0,7.77,75a67.23,67.23,0,0,0,134.46,0A66.43,66.43,0,0,0,129.5,35.63c-13.92,7.62-33.56,12-54.5,12S34.42,43.25,20.5,35.63Z" transform="translate(-1 -1)"/><path class="cls-1" d="M75,47.59c-22.31,0-43.15-4.92-57.16-13.5l-3.26-2,2.38-3A74,74,0,0,1,133,29.1l2.37,3-3.25,2C118.15,42.67,97.31,47.59,75,47.59ZM24.82,30.26C37.68,37,55.69,40.82,75,40.82S112.32,37,125.18,30.26a67.23,67.23,0,0,0-100.36,0Z" transform="translate(-1 -1)"/><path class="cls-1" d="M75,149a73.63,73.63,0,0,1-58-28.1l-2.38-3,3.26-2c14-8.58,34.85-13.5,57.16-13.5s43.15,4.92,57.16,13.5l3.25,2-2.37,3A73.63,73.63,0,0,1,75,149ZM24.82,119.74a67.23,67.23,0,0,0,100.36,0C112.32,113,94.31,109.18,75,109.18S37.68,113,24.82,119.74Z" transform="translate(-1 -1)"/><path class="cls-2" d="M75,75" transform="translate(-1 -1)"/><path class="cls-2" d="M75,75" transform="translate(-1 -1)"/><rect class="cls-1" x="70.61" y="3.39" width="6.77" height="141.23"/><rect class="cls-1" x="3.39" y="70.61" width="141.23" height="6.77"/><path class="cls-1" d="M75,149c-10.51,0-20.2-8-27.26-22.59-6.69-13.79-10.37-32-10.37-51.41s3.68-37.62,10.37-51.41C54.8,9,64.49,1,75,1s20.2,8,27.26,22.59C109,37.38,112.63,55.64,112.63,75s-3.68,37.62-10.37,51.41C95.2,141,85.51,149,75,149ZM75,7.77C58.27,7.77,44.14,38.56,44.14,75S58.27,142.23,75,142.23,105.86,111.44,105.86,75,91.73,7.77,75,7.77Z" transform="translate(-1 -1)"/></svg>